{"title":"Walking.on.Sunshine(2014)720p.WEB-DL.H264.AAC.Raven","uid":11232075,"size":736054343,"categoryP":"video","categoryS":"movies","magnet":"?xt=urn:btih:3d69f22072a4a55e657eff7e5128882e487fe641&amp;dn=Walking.on.Sunshine%282014%29720p.WEB-DL.H264.AAC.Raven&amp;tr=udp%3A%2F%2Ftracker.openbittorrent.com%3A80&amp;tr=udp%3A%2F%2Fopen.demonii.com%3A1337&amp;tr=udp%3A%2F%2Ftracker.coppersurfer.tk%3A6969&amp;tr=udp%3A%2F%2Fexodus.desync.com%3A6969","seeders":0,"leechers":0,"uploader":"Raven1969","files":-1,"time":1413554008,"description":"Walking.on.Sunshine(2014)720p.WEB-DL.H264.AAC.Raven.mp4\n\n\n\nScreen images:\n\n\n &lt;a href=&quot;\nhttp://i.imgur.com/EURtf8D.png&quot; rel=&quot;nofollow&quot; target=&quot;_NEW&quot;&gt;\nhttp://i.imgur.com/EURtf8D.png&lt;/a&gt;\n\n &lt;a href=&quot;\nhttp://i.imgur.com/hlvRJFz.png&quot; rel=&quot;nofollow&quot; target=&quot;_NEW&quot;&gt;\nhttp://i.imgur.com/hlvRJFz.png&lt;/a&gt;\n\n &lt;a href=&quot;\nhttp://i.imgur.com/uxowYqh.png&quot; rel=&quot;nofollow&quot; target=&quot;_NEW&quot;&gt;\nhttp://i.imgur.com/uxowYqh.png&lt;/a&gt;\n\n &lt;a href=&quot;\nhttp://i.imgur.com/xZwIm3b.png&quot; rel=&quot;nofollow&quot; target=&quot;_NEW&quot;&gt;\nhttp://i.imgur.com/xZwIm3b.png&lt;/a&gt;\n\n &lt;a href=&quot;\nhttp://i.imgur.com/bSNiXDp.png&quot; rel=&quot;nofollow&quot; target=&quot;_NEW&quot;&gt;\nhttp://i.imgur.com/bSNiXDp.png&lt;/a&gt;\n\n\n\n\nStoryline:\n\nSet to the music of popular hit songs from the 1980s. A beautiful coastal village, present day Italy. After a whirlwind romance, Maddie is preparing to marry gorgeous Italian Raf, and has invited her sister Taylor to the wedding. Unbeknownst to Maddie, however, Raf is Taylor's ex-holiday flame, and the love of her life...\nTaylor fell in love with hottie Raf while on holiday in Puglia, Italy but, despite his entreaties to stay, she left to go to university. On graduating three years later, she returns to Perugia to holiday with her sister Maddie who is already there (they had decided on Puglia because it meant to much to Taylor). Maddie, who has a history of relationships with unsatisfactory men, announces that she has had a whirlwind engagement and is about to get married in two days.\n\n\nGeneral\nFormat                                   : MPEG-4\nFormat profile                           : Base Media\nCodec ID                                 : isom\nFile size                                : 697 MiB\nDuration                                 : 1h 33mn\nOverall bit rate mode                    : Variable\nOverall bit rate                         : 1 046 Kbps\nEncoded date                             : UTC 2014-10-16 23:52:35\nTagged date                              : UTC 2014-10-16 23:52:35\n\nVideo\nID                                       : 1\nFormat                                   : AVC\nFormat/Info                              : Advanced Video Codec\nFormat profile                           : &lt;a class=&quot;__cf_email__&quot; href=&quot;/cdn-cgi/l/email-protection&quot; data-cfemail=&quot;337b5a545b737f071d03&quot;&gt;[email&amp;#160;protected]&lt;/a&gt;&lt;script cf-hash='f9e31' type=&quot;text/javascript&quot;&gt;\n/* &lt;![CDATA[ */!function(){try{var t=&quot;currentScript&quot;in document?document.currentScript:function(){for(var t=document.getElementsByTagName(&quot;script&quot;),e=t.length;e--;)if(t[e].getAttribute(&quot;cf-hash&quot;))return t[e]}();if(t&amp;&amp;t.previousSibling){var e,r,n,i,c=t.previousSibling,a=c.getAttribute(&quot;data-cfemail&quot;);if(a){for(e=&quot;&quot;,r=parseInt(a.substr(0,2),16),n=2;a.length-n;n+=2)i=parseInt(a.substr(n,2),16)^r,e+=String.fromCharCode(i);e=document.createTextNode(e),c.parentNode.replaceChild(e,c)}}}catch(u){}}();/* ]]&gt; */&lt;/script&gt;\nFormat settings, CABAC                   : Yes\nFormat settings, ReFrames                : 16 frames\nCodec ID                                 : avc1\nCodec ID/Info                            : Advanced Video Coding\nDuration                                 : 1h 33mn\nBit rate                                 : 950 Kbps\nMaximum bit rate                         : 4 494 Kbps\nWidth                                    : 960 pixels\nHeight                                   : 532 pixels\nDisplay aspect ratio                     : 2.40:1\nFrame rate mode                          : Constant\nFrame rate                               : 25.000 fps\nColor space                              : YUV\nChroma subsampling                       : 4:2:0\nBit depth                                : 8 bits\nScan type                                : Progressive\nBits/(Pixel*Frame)                       : 0.074\nStream size                              : 633 MiB (91%)\nWriting library                          : x264 core 132 \nEncoded date                             : UTC 2014-10-16 23:52:35\nTagged date                              : UTC 2014-10-16 23:53:06\n\nAudio\nID                                       : 2\nFormat                                   : AAC\nFormat/Info                              : Advanced Audio Codec\nFormat profile                           : LC\nCodec ID                                 : 40\nDuration                                 : 1h 33mn\nBit rate mode                            : Variable\nBit rate                                 : 92.0 Kbps\nMaximum bit rate                         : 104 Kbps\nChannel(s)                               : 2 channels\nChannel positions                        : Front: L R\nSampling rate                            : 48.0 KHz\nCompression mode                         : Lossy\nStream size                              : 61.3 MiB (9%)\nEncoded date                             : UTC 2014-10-16 22:26:23\nTagged date                              : UTC 2014-10-16 23:53:06\n\n\n\nPLEASE  SEED FOR AS LONG AS POSSIBLE TO KEEP THE TORRENT ALIVE :-)","torrent":{"xt":"urn:btih:3d69f22072a4a55e657eff7e5128882e487fe641","amp;dn":"Walking.on.Sunshine%282014%29720p.WEB-DL.H264.AAC.Raven","amp;tr":["udp%3A%2F%2Ftracker.openbittorrent.com%3A80","udp%3A%2F%2Fopen.demonii.com%3A1337","udp%3A%2F%2Ftracker.coppersurfer.tk%3A6969","udp%3A%2F%2Fexodus.desync.com%3A6969"],"infoHash":"3d69f22072a4a55e657eff7e5128882e487fe641","infoHashBuffer":{"type":"Buffer","data":[61,105,242,32,114,164,165,94,101,126,255,126,81,40,136,46,72,127,230,65]},"announce":[],"urlList":[]}}